<mxfile host="65bd71144e">
    <diagram id="g30DOkIL0wigeZqTopl5" name="Page-1">
        <mxGraphModel dx="592" dy="350" grid="0" gridSize="10" guides="1" tooltips="1" connect="1" arrows="1" fold="1" page="1" pageScale="1" pageWidth="827" pageHeight="1169" background="#ffffff" math="0" shadow="0">
            <root>
                <mxCell id="0"/>
                <mxCell id="1" parent="0"/>
                <mxCell id="2" value="&lt;font color=&quot;#ff0000&quot;&gt;2B964752880&lt;/font&gt;&lt;br&gt;&lt;font color=&quot;#006633&quot;&gt;[1,2,3,...,10]&lt;/font&gt;" style="whiteSpace=wrap;html=1;aspect=fixed;fontStyle=1;fillColor=#ffe6cc;strokeColor=#d79b00;" vertex="1" parent="1">
                    <mxGeometry x="356" y="111" width="80" height="80" as="geometry"/>
                </mxCell>
                <mxCell id="3" value="list" style="text;html=1;align=center;verticalAlign=middle;resizable=0;points=[];autosize=1;strokeColor=none;fillColor=none;fontColor=#FF0000;rotation=-1;strokeWidth=4;" vertex="1" parent="1">
                    <mxGeometry x="25" y="142" width="25" height="18" as="geometry"/>
                </mxCell>
                <mxCell id="4" value="" style="shape=flexArrow;endArrow=classic;html=1;fontColor=#FF0000;strokeColor=#FF66B3;" edge="1" parent="1">
                    <mxGeometry width="50" height="50" relative="1" as="geometry">
                        <mxPoint x="215" y="157" as="sourcePoint"/>
                        <mxPoint x="330" y="157" as="targetPoint"/>
                    </mxGeometry>
                </mxCell>
                <mxCell id="5" value="list_copy" style="text;html=1;align=center;verticalAlign=middle;resizable=0;points=[];autosize=1;strokeColor=none;fillColor=none;fontColor=#FF0000;" vertex="1" parent="1">
                    <mxGeometry x="22" y="213" width="57" height="18" as="geometry"/>
                </mxCell>
                <mxCell id="7" value="[1,2,3,...,10]" style="text;html=1;align=center;verticalAlign=middle;resizable=0;points=[];autosize=1;strokeColor=none;fillColor=none;fontColor=#FF0000;" vertex="1" parent="1">
                    <mxGeometry x="96" y="142" width="73" height="18" as="geometry"/>
                </mxCell>
                <mxCell id="8" value="" style="endArrow=classic;html=1;fontColor=#FF0000;strokeColor=#FF66B3;" edge="1" parent="1">
                    <mxGeometry width="50" height="50" relative="1" as="geometry">
                        <mxPoint x="58" y="151" as="sourcePoint"/>
                        <mxPoint x="89" y="150.5" as="targetPoint"/>
                    </mxGeometry>
                </mxCell>
                <mxCell id="9" value="" style="endArrow=classic;html=1;fontColor=#FF0000;strokeColor=#FF66B3;" edge="1" parent="1">
                    <mxGeometry width="50" height="50" relative="1" as="geometry">
                        <mxPoint x="98" y="221.5" as="sourcePoint"/>
                        <mxPoint x="180" y="221.5" as="targetPoint"/>
                    </mxGeometry>
                </mxCell>
                <mxCell id="11" value="" style="edgeStyle=none;html=1;fontColor=#FF0000;strokeColor=#FF66B3;" edge="1" parent="1" source="10" target="2">
                    <mxGeometry relative="1" as="geometry"/>
                </mxCell>
                <mxCell id="10" value="&amp;amp;list" style="text;html=1;align=center;verticalAlign=middle;resizable=0;points=[];autosize=1;strokeColor=none;fillColor=none;fontColor=#FF0000;" vertex="1" parent="1">
                    <mxGeometry x="213" y="209" width="33" height="18" as="geometry"/>
                </mxCell>
            </root>
        </mxGraphModel>
    </diagram>
</mxfile>